# xmcd
# Track frame offsets:
# 150
# 25673
# 57156
# 85715
# 111512
# 136460
# 186223
# 212039
#
# Disc length: 3452 seconds
# Revision: 0
# Processed by: cddbd v1.4PL0 Copyright (c) Steve Scherf et al.
# Submitted via: VisiTrax 2.9.5.181 - For more info visit www.synapsa.com
#
DISCID=6b0d7a08
DTITLE=Driving South - One Step in the Blue
DYEAR=2003
DGENRE=
TTITLE0=42nd Street
TTITLE1=Movin' On
TTITLE2=Life's Great Crime
TTITLE3=Keyed Up
TTITLE4=Rock Tonight
TTITLE5=One Step in the Blue
TTITLE6=NYC
TTITLE7=Eight Shades of Black
EXTD=
EXTT0=
EXTT1=
EXTT2=
EXTT3=
EXTT4=
EXTT5=
EXTT6=
EXTT7=
PLAYORDER=
